<svg width="50" height="50" viewBox="0 0 50 50" fill="none" xmlns="http://www.w3.org/2000/svg">
<g clip-path="url(#clip0_340_586)">
<path fill-rule="evenodd" clip-rule="evenodd" d="M43.8912 0C47.2628 0 50 2.7373 50 6.10879V43.8912C50 47.2627 47.2627 50 43.8912 50H6.10879C2.7373 50 0 47.2627 0 43.8912V6.10879C0 2.7373 2.73721 0 6.10879 0L43.8912 0ZM15.67 41.3357V19.2931H8.34189V41.3357H15.67ZM42.0898 41.3357V28.6952C42.0898 21.9244 38.4748 18.7747 33.6542 18.7747C29.7671 18.7747 28.0259 20.9125 27.051 22.414V19.2931H19.7247C19.8219 21.3615 19.7247 41.3357 19.7247 41.3357H27.0509V29.0256C27.0509 28.3666 27.0983 27.708 27.2925 27.237C27.8212 25.9211 29.0275 24.5579 31.0517 24.5579C33.7016 24.5579 34.7633 26.5801 34.7633 29.542V41.3357H42.0898ZM12.0555 8.66426C9.54824 8.66426 7.91016 10.3126 7.91016 12.473C7.91016 14.5881 9.49844 16.2818 11.9585 16.2818H12.0058C14.5609 16.2818 16.1515 14.5881 16.1515 12.473C16.1041 10.3156 14.5654 8.66895 12.0555 8.66426Z" fill="white"/>
</g>
<defs>
<clipPath id="clip0_340_586">
<rect width="50" height="50" fill="white"/>
</clipPath>
</defs>
</svg>
